<svg width="42" height="26" viewBox="0 0 42 26" fill="none" xmlns="http://www.w3.org/2000/svg">
<path d="M39.7833 11H2.21667C0.992435 11 0 11.8507 0 12.9V13.1C0 14.1493 0.992435 15 2.21667 15H39.7833C41.0076 15 42 14.1493 42 13.1V12.9C42 11.8507 41.0076 11 39.7833 11Z" fill="white"/>
<path d="M39.7833 22H2.21667C0.992435 22 0 22.8507 0 23.9V24.1C0 25.1493 0.992435 26 2.21667 26H39.7833C41.0076 26 42 25.1493 42 24.1V23.9C42 22.8507 41.0076 22 39.7833 22Z" fill="white"/>
<path d="M39.7833 0H2.21667C0.992435 0 0 0.850659 0 1.9V2.1C0 3.14934 0.992435 4 2.21667 4H39.7833C41.0076 4 42 3.14934 42 2.1V1.9C42 0.850659 41.0076 0 39.7833 0Z" fill="white"/>
</svg>
