<svg width="90" height="100" viewBox="0 0 90 100" fill="none" xmlns="http://www.w3.org/2000/svg">
<path d="M45.001 0C28.65 0 15.25 13.36 15.25 29.666C15.25 35.984 17.268 41.856 20.683 46.682L41.37 82.445C44.267 86.23 46.193 85.511 48.602 82.245L71.42 43.415C71.88 42.581 72.242 41.693 72.557 40.786C74.0049 37.2575 74.7496 33.4801 74.749 29.666C74.75 13.36 61.354 0 45.001 0ZM45.001 13.9C53.807 13.9 60.809 20.886 60.809 29.666C60.809 38.446 53.807 45.429 45.001 45.429C36.196 45.429 29.191 38.447 29.191 29.666C29.191 20.886 36.196 13.901 45.001 13.901V13.9Z" fill="white"/>
<path d="M63.9129 48.908L63.8649 49.034C63.8799 48.996 63.8919 48.957 63.9069 48.919L63.9129 48.908V48.908ZM58.8479 73.354L57.4649 75.064C59.3349 75.29 61.1449 75.555 62.8399 75.876L57.3609 77.499L64.6739 79.444L70.1249 77.725C73.4729 78.848 78.1089 80.221 79.6449 81.782H68.7149L69.8009 84.958H81.1429C81.1089 86.748 77.9089 88.202 74.8529 89.38L67.1019 87.704L59.7989 90.321L67.5989 92.101C63.0449 93.341 55.3989 94.095 49.0689 94.442L48.8029 90.802H41.1969L40.9299 94.442C34.5999 94.095 26.9549 93.342 22.3999 92.102L30.2009 90.321L22.8979 87.704L15.1459 89.38C12.1339 88.465 8.89091 86.748 8.85691 84.958H20.1999L21.2859 81.782H10.3559C11.8919 80.221 16.5279 78.848 19.8759 77.725L25.3269 79.444L32.6399 77.499L27.1609 75.876C28.9303 75.5489 30.7099 75.2797 32.4969 75.069L31.1339 73.356C16.3489 74.893 4.06091 78.166 0.838908 83.335C-4.30009 91.573 14.6579 99.86 44.3699 99.989C44.8119 100.011 45.2479 99.995 45.6599 99.989C75.3549 99.853 94.2959 91.569 89.1609 83.335C85.9369 78.164 73.6409 74.89 58.8469 73.354H58.8479Z" fill="white"/>
</svg>
