<svg width="30" height="32" viewBox="0 0 30 32" fill="none" xmlns="http://www.w3.org/2000/svg">
<mask id="path-1-inside-1_132_140" fill="white">
<path d="M15 31.1379L0 23.3535V7.78448L15 0L30 7.78448V23.3535L15 31.1379ZM15 3.27231L3.15789 9.4164V21.7215L15 27.867L26.8421 21.7215V9.4164L15 3.2709V3.27231ZM15 21.2304C13.5388 21.2307 12.1227 20.7768 10.993 19.9461C9.86324 19.1153 9.08981 17.9592 8.80446 16.6746C8.51911 15.39 8.73949 14.0564 9.42806 12.9011C10.1166 11.7459 11.2308 10.8403 12.5806 10.3389C13.9305 9.83741 15.4326 9.77102 16.831 10.151C18.2293 10.531 19.4374 11.3339 20.2495 12.4229C21.0615 13.5118 21.4271 14.8195 21.2841 16.123C21.1411 17.4265 20.4983 18.6453 19.4653 19.5716C18.2785 20.6299 16.674 21.2259 15 21.2304ZM15 12.7382C14.5853 12.7382 14.1746 12.8113 13.7915 12.9535C13.4083 13.0956 13.0601 13.3041 12.7668 13.5668C12.4735 13.8296 12.2408 14.1416 12.082 14.485C11.9232 14.8284 11.8414 15.1965 11.8413 15.5683C11.8412 15.94 11.9228 16.3081 12.0814 16.6516C12.24 16.9951 12.4725 17.3072 12.7657 17.5701C13.0588 17.833 13.4069 18.0416 13.79 18.1839C14.1731 18.3263 14.5837 18.3996 14.9984 18.3997C15.8359 18.3999 16.6393 18.1018 17.2316 17.5711C17.824 17.0404 18.1569 16.3204 18.1571 15.5697C18.1573 14.8189 17.8248 14.0988 17.2327 13.5678C16.6407 13.0369 15.8375 12.7384 15 12.7382Z"/>
</mask>
<path d="M15 31.1379L0 23.3535V7.78448L15 0L30 7.78448V23.3535L15 31.1379ZM15 3.27231L3.15789 9.4164V21.7215L15 27.867L26.8421 21.7215V9.4164L15 3.2709V3.27231ZM15 21.2304C13.5388 21.2307 12.1227 20.7768 10.993 19.9461C9.86324 19.1153 9.08981 17.9592 8.80446 16.6746C8.51911 15.39 8.73949 14.0564 9.42806 12.9011C10.1166 11.7459 11.2308 10.8403 12.5806 10.3389C13.9305 9.83741 15.4326 9.77102 16.831 10.151C18.2293 10.531 19.4374 11.3339 20.2495 12.4229C21.0615 13.5118 21.4271 14.8195 21.2841 16.123C21.1411 17.4265 20.4983 18.6453 19.4653 19.5716C18.2785 20.6299 16.674 21.2259 15 21.2304ZM15 12.7382C14.5853 12.7382 14.1746 12.8113 13.7915 12.9535C13.4083 13.0956 13.0601 13.3041 12.7668 13.5668C12.4735 13.8296 12.2408 14.1416 12.082 14.485C11.9232 14.8284 11.8414 15.1965 11.8413 15.5683C11.8412 15.94 11.9228 16.3081 12.0814 16.6516C12.24 16.9951 12.4725 17.3072 12.7657 17.5701C13.0588 17.833 13.4069 18.0416 13.79 18.1839C14.1731 18.3263 14.5837 18.3996 14.9984 18.3997C15.8359 18.3999 16.6393 18.1018 17.2316 17.5711C17.824 17.0404 18.1569 16.3204 18.1571 15.5697C18.1573 14.8189 17.8248 14.0988 17.2327 13.5678C16.6407 13.0369 15.8375 12.7384 15 12.7382Z" fill="#C35A5A"/>
<path d="M15 31.1379L12.6969 35.5759C14.1408 36.3253 15.8592 36.3253 17.3032 35.5759L15 31.1379ZM0 23.3535H-5C-5 25.2202 -3.96008 26.9315 -2.30315 27.7914L0 23.3535ZM0 7.78448L-2.30315 3.34652C-3.96008 4.20641 -5 5.91772 -5 7.78448H0ZM15 0L17.3032 -4.43796C15.8592 -5.18735 14.1408 -5.18735 12.6969 -4.43796L15 0ZM30 7.78448H35C35 5.91772 33.9601 4.20641 32.3032 3.34652L30 7.78448ZM30 23.3535L32.3032 27.7914C33.9601 26.9315 35 25.2202 35 23.3535H30ZM15 3.27231L17.3027 7.71052C18.9599 6.85071 20 5.13927 20 3.27231H15ZM3.15789 9.4164L0.855207 4.97819C-0.801978 5.838 -1.84211 7.54944 -1.84211 9.4164H3.15789ZM3.15789 21.7215H-1.84211C-1.84211 23.5883 -0.802164 25.2996 0.85479 26.1595L3.15789 21.7215ZM15 27.867L12.6969 32.305C14.1409 33.0544 15.8591 33.0544 17.3031 32.305L15 27.867ZM26.8421 21.7215L29.1452 26.1595C30.8022 25.2996 31.8421 23.5883 31.8421 21.7215H26.8421ZM26.8421 9.4164H31.8421C31.8421 7.54961 30.8022 5.83829 29.1452 4.97841L26.8421 9.4164ZM15 3.2709L17.3031 -1.16708C15.7531 -1.97146 13.8958 -1.90888 12.4034 -1.00201C10.9111 -0.0951389 10 1.52462 10 3.2709H15ZM15 21.2304L15.001 26.2304L15.0134 26.2304L15 21.2304ZM19.4653 19.5716L22.793 23.3035L22.8032 23.2942L19.4653 19.5716ZM15 12.7382L15.0011 7.73825L15 12.7382ZM14.9984 18.3997L14.9995 13.3997L14.9984 18.3997ZM17.3032 26.7L2.30315 18.9155L-2.30315 27.7914L12.6969 35.5759L17.3032 26.7ZM5 23.3535V7.78448H-5V23.3535H5ZM2.30315 12.2224L17.3032 4.43796L12.6969 -4.43796L-2.30315 3.34652L2.30315 12.2224ZM12.6969 4.43796L27.6969 12.2224L32.3032 3.34652L17.3032 -4.43796L12.6969 4.43796ZM25 7.78448V23.3535H35V7.78448H25ZM27.6969 18.9155L12.6969 26.7L17.3032 35.5759L32.3032 27.7914L27.6969 18.9155ZM12.6973 -1.16589L0.855207 4.97819L5.46058 13.8546L17.3027 7.71052L12.6973 -1.16589ZM-1.84211 9.4164V21.7215H8.1579V9.4164H-1.84211ZM0.85479 26.1595L12.6969 32.305L17.3031 23.4291L5.461 17.2836L0.85479 26.1595ZM17.3031 32.305L29.1452 26.1595L24.539 17.2836L12.6969 23.4291L17.3031 32.305ZM31.8421 21.7215V9.4164H21.8421V21.7215H31.8421ZM29.1452 4.97841L17.3031 -1.16708L12.6969 7.70888L24.539 13.8544L29.1452 4.97841ZM10 3.2709V3.27231H20V3.2709H10ZM14.999 16.2304C14.556 16.2305 14.1882 16.0893 13.955 15.9179L8.03088 23.9742C10.0572 25.4643 12.5216 26.2309 15.001 26.2304L14.999 16.2304ZM13.955 15.9179C13.7306 15.7529 13.6903 15.6122 13.6855 15.5903L3.92343 17.7588C4.48928 20.3061 5.99588 22.4778 8.03088 23.9742L13.955 15.9179ZM13.6855 15.5903C13.6822 15.5754 13.6823 15.5657 13.6841 15.5546C13.6861 15.5429 13.6931 15.5112 13.7231 15.461L5.13306 10.3412C3.80754 12.5652 3.35483 15.1991 3.92343 17.7588L13.6855 15.5903ZM13.7231 15.461C13.785 15.3571 13.9598 15.1604 14.3218 15.0259L10.8395 5.65184C8.50175 6.52028 6.44824 8.13464 5.13306 10.3412L13.7231 15.461ZM14.3218 15.0259C14.687 14.8903 15.1215 14.8678 15.5198 14.976L18.1422 5.326C15.7437 4.67422 13.1741 4.78456 10.8395 5.65184L14.3218 15.0259ZM15.5198 14.976C15.9162 15.0838 16.1438 15.2812 16.2411 15.4117L24.2578 9.43396C22.7311 7.38656 20.5425 5.97828 18.1422 5.326L15.5198 14.976ZM16.2411 15.4117C16.2877 15.4742 16.304 15.5187 16.3096 15.539C16.3151 15.5585 16.3149 15.5693 16.3139 15.5778L26.2543 16.6682C26.5406 14.0584 25.7959 11.4967 24.2578 9.43396L16.2411 15.4117ZM16.3139 15.5778C16.3135 15.5818 16.3018 15.6925 16.1273 15.849L22.8032 23.2942C24.6949 21.5981 25.9688 19.2713 26.2543 16.6682L16.3139 15.5778ZM16.1376 15.8398C15.9146 16.0386 15.5084 16.229 14.9866 16.2304L15.0134 26.2304C17.8396 26.2228 20.6423 25.2211 22.7929 23.3034L16.1376 15.8398ZM15.0011 7.73825C14.0012 7.73802 13.0006 7.91382 12.0521 8.26573L15.5308 17.6412C15.3487 17.7087 15.1694 17.7383 14.9989 17.7382L15.0011 7.73825ZM12.0521 8.26573C11.1035 8.61773 10.2085 9.14569 9.43032 9.84288L16.1033 17.2908C15.9117 17.4624 15.7131 17.5735 15.5308 17.6412L12.0521 8.26573ZM9.43032 9.84288C8.6511 10.541 7.99997 11.3998 7.54372 12.3865L16.6203 16.5836C16.4816 16.8835 16.2959 17.1183 16.1033 17.2908L9.43032 9.84288ZM7.54372 12.3865C7.08652 13.3752 6.84163 14.4577 6.84132 15.5669L16.8413 15.5697C16.8412 15.9353 16.7599 16.2817 16.6203 16.5836L7.54372 12.3865ZM6.84132 15.5669C6.84101 16.676 7.08529 17.7587 7.54198 18.7477L16.6208 14.5555C16.7603 14.8575 16.8414 15.204 16.8413 15.5697L6.84132 15.5669ZM7.54198 18.7477C7.99773 19.7347 8.64845 20.5938 9.42736 21.2924L16.104 13.8478C16.2966 14.0205 16.4823 14.2554 16.6208 14.5555L7.54198 18.7477ZM9.42736 21.2924C10.2052 21.99 11.1 22.5184 12.0485 22.8709L15.5315 13.497C15.7139 13.5648 15.9125 13.676 16.104 13.8478L9.42736 21.2924ZM12.0485 22.8709C12.9968 23.2232 13.9974 23.3995 14.9973 23.3997L14.9995 13.3997C15.17 13.3997 15.3494 13.4294 15.5315 13.497L12.0485 22.8709ZM14.9973 23.3997C16.9951 23.4001 19.0065 22.6942 20.5681 21.2951L13.8951 13.8471C14.272 13.5095 14.6768 13.3996 14.9995 13.3997L14.9973 23.3997ZM20.5681 21.2951C22.1477 19.8798 23.1565 17.8354 23.1571 15.5711L13.1571 15.5683C13.1573 14.8055 13.5003 14.2009 13.8951 13.8471L20.5681 21.2951ZM23.1571 15.5711C23.1577 13.3068 22.15 11.2616 20.5711 9.84554L13.8944 17.2902C13.4996 16.9361 13.1569 16.3311 13.1571 15.5683L23.1571 15.5711ZM20.5711 9.84554C19.0101 8.44556 16.9989 7.7387 15.0011 7.73825L14.9989 17.7382C14.6761 17.7382 14.2713 17.6281 13.8944 17.2902L20.5711 9.84554Z" fill="#C35A5A" mask="url(#path-1-inside-1_132_140)"/>
</svg>
