<svg width="30" height="30" viewBox="0 0 30 30" fill="none" xmlns="http://www.w3.org/2000/svg">
<path d="M11.7857 0V4.28571L9.64286 5.35714L6.42857 2.14286L2.14286 6.42857L5.35714 9.64286L4.28571 11.7857H0V18.2143H4.28571L5.35714 20.3571L2.14286 23.5714L6.42857 27.8571L9.64286 24.6429L11.7857 25.7143V30H18.2143V25.7143L20.3571 24.6429L23.5714 27.8571L27.8571 23.5714L24.6429 20.3571L25.7143 18.2143H30V11.7857H25.7143L24.6429 9.64286L27.8571 6.42857L23.5714 2.14286L20.3571 5.35714L18.2143 4.28571V0H11.7857Z" fill="#C35A5A"/>
<path d="M14.9997 20.3571C17.9584 20.3571 20.3569 17.9586 20.3569 15C20.3569 12.0413 17.9584 9.64282 14.9997 9.64282C12.0411 9.64282 9.64258 12.0413 9.64258 15C9.64258 17.9586 12.0411 20.3571 14.9997 20.3571Z" fill="#EFEFEF"/>
</svg>
